<?xml version="1.0" encoding="utf-8"?>
<!-- Generator: Adobe Illustrator 16.1.0, SVG Export Plug-In . SVG Version: 6.00 Build 0)  -->
<!DOCTYPE svg PUBLIC "-//W3C//DTD SVG 1.1//EN" "http://www.w3.org/Graphics/SVG/1.1/DTD/svg11.dtd">
<svg version="1.1" id="Layer_1" xmlns="http://www.w3.org/2000/svg" xmlns:xlink="http://www.w3.org/1999/xlink" x="0px" y="0px"
	 width="654px" height="248px" viewBox="0 0 654 248" enable-background="new 0 0 654 248" xml:space="preserve">
<path fill-rule="evenodd" clip-rule="evenodd" fill="none" stroke="#000000" stroke-miterlimit="10" d="M21,216.5c0,0,8-29,29-36
	s33-13,52-6s27,21,32,28s13,30,23,35s29,3,29,3l247,1c0,0,35,0,42-4s15-29,22-37s17-20,32-25s37-8,52,1s32,15,37,32s5,33,5,33l10-10
	l7-8l9-16l-1-6l-8,2c0,0,2-14-6-33s-10-24-10-24l11-1c0,0-6-17-12-22s-18-17-18-17l-7-10c0,0-12-3-18-12s-19-26-19-26l-10-18
	c0,0,0-6-4-11s-6-9-16-12s-83-12-120-11s-132,5-132,5s-37-2-48,10s-19,32-19,32l-27,37l-9,11l-15-2l-47,8l-19,4l-22,2c0,0-32,5-43,8
	s-20,7-21,11s-2,12-2,19s4,28,4,28L21,216.5z"/>
</svg>
